<?xml version="1.0" encoding="UTF-8" standalone="no"?>
<!-- Created with Inkscape (http://www.inkscape.org/) -->

<svg
   width="16.0px"
   height="16.0px"
   viewBox="0 0 16.0 16.0"
   version="1.1"
   id="SVGRoot"
   sodipodi:docname="icon.svg"
   inkscape:version="1.1.2 (0a00cf5339, 2022-02-04)"
   xmlns:inkscape="http://www.inkscape.org/namespaces/inkscape"
   xmlns:sodipodi="http://sodipodi.sourceforge.net/DTD/sodipodi-0.dtd"
   xmlns="http://www.w3.org/2000/svg"
   xmlns:svg="http://www.w3.org/2000/svg">
  <sodipodi:namedview
     id="namedview14"
     pagecolor="#ffffff"
     bordercolor="#666666"
     borderopacity="1.0"
     inkscape:pageshadow="2"
     inkscape:pageopacity="0.0"
     inkscape:pagecheckerboard="0"
     inkscape:document-units="px"
     showgrid="true"
     inkscape:zoom="30.305472"
     inkscape:cx="9.8497064"
     inkscape:cy="7.3089111"
     inkscape:window-width="1846"
     inkscape:window-height="1016"
     inkscape:window-x="74"
     inkscape:window-y="27"
     inkscape:window-maximized="1"
     inkscape:current-layer="layer1">
    <inkscape:grid
       type="xygrid"
       id="grid20" />
  </sodipodi:namedview>
  <defs
     id="defs9" />
  <g
     inkscape:label="Layer 1"
     inkscape:groupmode="layer"
     id="layer1">
    <text
       xml:space="preserve"
       style="font-style:normal;font-weight:normal;font-size:40px;line-height:1.25;font-family:sans-serif;fill:#000000;fill-opacity:1;stroke:none"
       x="3"
       y="9"
       id="text9903"><tspan
         sodipodi:role="line"
         id="tspan9901"
         x="3"
         y="9" /></text>
    <rect
       style="fill:#0000ff;fill-rule:evenodd"
       id="rect11511"
       width="10"
       height="11"
       x="3"
       y="2" />
    <path
       style="fill:none;stroke:#000000;stroke-width:1px;stroke-linecap:butt;stroke-linejoin:miter;stroke-opacity:1"
       d="m 5,1 c 0.027036,0.1541468 0.1050429,0.3077815 0.081109,0.4624404 -0.00425,0.027434 -0.3823647,0.2495355 -0.4699946,0.3371654 -0.053293,0.053293 0.03164,0.8323525 0.060495,0.931463 0.051627,0.1773281 0.1030619,0.1277873 0.2199829,0.2914768 0.040504,0.056705 0.055873,0.1283263 0.093492,0.1869846 0.1342067,0.2092642 0.1957033,0.1905322 0.3751776,0.408466 0.03127,0.037971 0.04058,0.089874 0.065995,0.1319893 C 5.6401252,4.1043943 5.8736724,4.5550417 5.7122338,4.9881149 5.6181347,5.2405438 5.4090277,5.4068681 5.2192675,5.5810762 4.9839546,5.7971036 4.753855,6.0205212 4.4838844,6.1964854 4.1151051,6.4368522 3.7348891,6.6748422 3.4852455,7.0452808 3.3743171,7.2098842 3.3844156,7.2751788 3.3591652,7.4565191 c -0.014181,0.1018397 -0.048157,0.2003971 -0.060497,0.3024763 -0.046139,0.3816833 0.082009,0.7722049 0.1557989,1.1407968 0.066184,0.3306026 0.074311,0.6479351 0.2012044,0.9651662 0.081762,0.2044036 0.215434,0.3091206 0.3597061,0.4545066 0.088804,0.08949 0.05782,0.130458 0.1341967,0.23448 0.2447801,0.333381 0.594991,0.696706 1.0061813,0.814189 0.1758374,0.05024 0.5829507,0.0263 0.7304246,0.033 0.4976656,0.02261 0.9033679,0.114143 1.3764327,-0.07797 0.1114548,-0.04526 0.2178682,-0.10229 0.3241086,-0.158715 0.035025,-0.0186 0.077415,-0.03272 0.098992,-0.06599 0.042068,-0.06487 0.1405268,-0.466443 0.1436646,-0.489061 0.011714,-0.08444 -0.016183,-0.172044 0,-0.25574 0.04068,-0.210392 0.1234852,-0.4108352 0.169357,-0.6201562 C 8.0587697,9.459553 8.1139508,9.1838048 8.1467826,8.9052864 8.1871067,8.5632093 8.174558,7.5896201 8.0909163,7.3084177 7.960365,6.8695055 7.7771123,6.380061 7.5129211,6.0015405 7.3134545,5.7157544 7.0729213,5.4131081 6.8364172,5.1525689 6.4474757,4.7241007 6.3439111,4.5422232 6.3482382,3.9305676 6.3511451,3.5196556 6.8364671,3.3356678 7.1312866,3.1860148 7.3584702,3.0706944 7.5773798,2.9377899 7.8118487,2.8381127 8.008976,2.7543102 8.9558568,2.4535825 9.1641738,2.6402526 9.478793,2.9221785 9.6196514,3.425529 9.7386747,3.7953146 c 0.1123196,0.348958 0.2406594,0.6950835 0.3111643,1.0548284 0.07442,0.3797114 0.09956,0.7681014 0.121815,1.1543964 0.08708,1.5118437 -0.09768,2.286772 -0.7225599,3.7190867 C 9.3414578,9.9703454 9.2260693,10.21486 9.087956,10.445902 c -0.2419978,0.404826 -0.5281854,0.593166 -0.9119986,0.887057 -0.058267,0.04462 -0.1241691,0.07837 -0.1881014,0.114404 -0.042852,0.02415 -0.086318,0.04773 -0.1319893,0.06599 -0.010212,0.0041 -0.030103,-0.01061 -0.032997,0 -0.051757,0.189777 0.5472924,0.902531 0.5850583,0.945824 0.5251853,0.602052 0.9614886,1.037776 1.77983,1.068494 0.57393,0.02154 0.708397,0.021 1.2828,-0.164835 0.525756,-0.170095 0.636405,-0.461746 0.561682,-1.004907 C 11.984667,12.012128 11.923612,11.665239 11.8148,11.33357 11.1226,9.2236601 9.8451985,7.3762692 8.6767883,5.5132749 8.4065037,5.0823145 8.0975121,4.6754433 7.8440586,4.2343742 7.3348502,3.3482312 8.0603213,4.450145 7.5929795,3.7949017 7.578698,3.7748782 7.5380183,3.7178394 7.5599822,3.728907 7.7138285,3.8064304 7.8533274,3.9096357 8,4"
       id="path11679" />
  </g>
</svg>
